<svg width="30" height="30" viewBox="0 0 30 30" fill="none" xmlns="http://www.w3.org/2000/svg">
<rect width="30" height="30" fill="#1E1E1E"/>
<g id="Sign up">
<rect width="1440" height="1024" transform="translate(-664 -788)" fill="#111125"/>
<g id="devicon:google" clip-path="url(#clip0_0_1)">
<g id="Group 25">
<path id="Vector" d="M10.4508 0.98676C7.45335 2.02661 4.86834 4.00027 3.07548 6.61786C1.28262 9.23544 0.376419 12.359 0.489976 15.5296C0.603533 18.7003 1.73086 21.751 3.70638 24.2336C5.6819 26.7163 8.40148 28.4999 11.4657 29.3227C13.9499 29.9637 16.5526 29.9919 19.05 29.4047C21.3125 28.8965 23.4042 27.8095 25.1203 26.25C26.9065 24.5774 28.2029 22.4496 28.8703 20.0954C29.5958 17.5352 29.7249 14.8429 29.2477 12.225H15.2977V18.0118H23.3766C23.2151 18.9347 22.8691 19.8156 22.3593 20.6017C21.8495 21.3878 21.1863 22.0629 20.4094 22.5868C19.4229 23.2393 18.3108 23.6784 17.1446 23.8758C15.9749 24.0933 14.7752 24.0933 13.6055 23.8758C12.42 23.6307 11.2985 23.1414 10.3125 22.4391C8.72851 21.3178 7.53912 19.7249 6.91409 17.8875C6.2785 16.0158 6.2785 13.9866 6.91409 12.1149C7.359 10.8029 8.09449 9.60833 9.06566 8.62035C10.177 7.46898 11.5841 6.64597 13.1324 6.24163C14.6808 5.83728 16.3106 5.86722 17.843 6.32817C19.0401 6.69565 20.1348 7.33771 21.0399 8.20317C21.9508 7.29692 22.8602 6.38832 23.768 5.47739C24.2368 4.98754 24.7477 4.52113 25.2094 4.01957C23.8279 2.73397 22.2063 1.73361 20.4375 1.07582C17.2165 -0.0937325 13.6922 -0.125163 10.4508 0.98676Z" fill="white"/>
<path id="Vector_2" d="M10.4508 0.986556C13.6919 -0.126123 17.2163 -0.0955193 20.4375 1.07328C22.2066 1.73553 23.8275 2.74071 25.2071 4.03109C24.7383 4.53265 24.2438 5.0014 23.7657 5.4889C22.8563 6.39671 21.9477 7.3014 21.0399 8.20296C20.1348 7.3375 19.0401 6.69544 17.843 6.32796C16.3111 5.8654 14.6813 5.83373 13.1326 6.23642C11.5838 6.63911 10.1759 7.46061 9.06332 8.61077C8.09215 9.59875 7.35666 10.7933 6.91176 12.1053L2.05316 8.34359C3.79224 4.8949 6.80336 2.25693 10.4508 0.986556Z" fill="#E33629"/>
<path id="Vector_3" d="M0.764068 12.0703C1.02521 10.776 1.45876 9.52266 2.05313 8.34369L6.91172 12.1148C6.27613 13.9865 6.27613 16.0157 6.91172 17.8874C5.29297 19.1374 3.67344 20.3937 2.05313 21.6562C0.565202 18.6944 0.11141 15.3199 0.764068 12.0703Z" fill="#F8BD00"/>
<path id="Vector_4" d="M15.2977 12.2228H29.2477C29.7249 14.8406 29.5958 17.5329 28.8703 20.0931C28.2029 22.4473 26.9065 24.5752 25.1203 26.2478C23.5524 25.0243 21.9774 23.8103 20.4094 22.5868C21.1868 22.0625 21.8503 21.3866 22.3601 20.5997C22.87 19.8127 23.2157 18.9309 23.3766 18.0072H15.2977C15.2953 16.0806 15.2977 14.1517 15.2977 12.2228Z" fill="#587DBD"/>
<path id="Vector_5" d="M2.05084 21.6562C3.67115 20.4062 5.29069 19.1499 6.90944 17.8874C7.5357 19.7254 8.72679 21.3184 10.3126 22.439C11.3016 23.138 12.4255 23.6234 13.6126 23.864C14.7822 24.0815 15.982 24.0815 17.1516 23.864C18.3179 23.6666 19.4299 23.2275 20.4165 22.5749C21.9844 23.7984 23.5594 25.0124 25.1274 26.2359C23.4115 27.7962 21.3198 28.884 19.0571 29.3929C16.5596 29.98 13.9569 29.9519 11.4727 29.3109C9.50796 28.7863 7.67274 27.8615 6.08209 26.5945C4.39849 25.2578 3.02339 23.5733 2.05084 21.6562Z" fill="#319F43"/>
</g>
</g>
</g>
<defs>
<clipPath id="clip0_0_1">
<rect width="30" height="30" fill="white"/>
</clipPath>
</defs>
</svg>
