<svg width="69" height="85" viewBox="0 0 69 85" fill="none" xmlns="http://www.w3.org/2000/svg">
<path d="M42.75 1.25V17.75C42.75 19.938 43.6192 22.0365 45.1664 23.5836C46.7135 25.1308 48.812 26 51 26H67.5M34.5 42.5V67.25M34.5 42.5L46.875 54.875M34.5 42.5L22.125 54.875M46.875 1.25H9.75C7.56196 1.25 5.46354 2.11919 3.91637 3.66637C2.36919 5.21354 1.5 7.31196 1.5 9.5V75.5C1.5 77.688 2.36919 79.7865 3.91637 81.3336C5.46354 82.8808 7.56196 83.75 9.75 83.75H59.25C61.438 83.75 63.5365 82.8808 65.0836 81.3336C66.6308 79.7865 67.5 77.688 67.5 75.5V21.875L46.875 1.25Z" stroke="#ABA4F5" stroke-width="2" stroke-linecap="round" stroke-linejoin="round"/>
</svg>
