<svg width="20" height="20" viewBox="0 0 20 20" fill="none" xmlns="http://www.w3.org/2000/svg">
<path d="M9.95817 15C10.2498 15 10.4965 14.8992 10.6982 14.6975C10.8998 14.4958 11.0004 14.2494 10.9998 13.9583C10.9993 13.6672 10.8987 13.4205 10.6982 13.2183C10.4976 13.0161 10.2509 12.9155 9.95817 12.9167C9.66539 12.9178 9.419 13.0186 9.219 13.2192C9.019 13.4197 8.91817 13.6661 8.9165 13.9583C8.91484 14.2505 9.01567 14.4972 9.219 14.6983C9.42234 14.8994 9.66873 15 9.95817 15ZM9.99984 18.3333C8.84706 18.3333 7.76373 18.1144 6.74984 17.6767C5.73595 17.2389 4.854 16.6453 4.10401 15.8958C3.35401 15.1464 2.76039 14.2644 2.32317 13.25C1.88595 12.2355 1.66706 11.1522 1.6665 9.99999C1.66595 8.84777 1.88484 7.76443 2.32317 6.74999C2.76151 5.73555 3.35512 4.8536 4.10401 4.10416C4.85289 3.35471 5.73484 2.7611 6.74984 2.32332C7.76484 1.88555 8.84817 1.66666 9.99984 1.66666C11.1515 1.66666 12.2348 1.88555 13.2498 2.32332C14.2648 2.7611 15.1468 3.35471 15.8957 4.10416C16.6446 4.8536 17.2384 5.73555 17.6773 6.74999C18.1162 7.76443 18.3348 8.84777 18.3332 9.99999C18.3315 11.1522 18.1126 12.2355 17.6765 13.25C17.2404 14.2644 16.6468 15.1464 15.8957 15.8958C15.1446 16.6453 14.2626 17.2392 13.2498 17.6775C12.2371 18.1158 11.1537 18.3344 9.99984 18.3333ZM9.99984 16.6667C11.8609 16.6667 13.4373 16.0208 14.729 14.7292C16.0207 13.4375 16.6665 11.8611 16.6665 9.99999C16.6665 8.13888 16.0207 6.56249 14.729 5.27082C13.4373 3.97916 11.8609 3.33332 9.99984 3.33332C8.13873 3.33332 6.56234 3.97916 5.27067 5.27082C3.979 6.56249 3.33317 8.13888 3.33317 9.99999C3.33317 11.8611 3.979 13.4375 5.27067 14.7292C6.56234 16.0208 8.13873 16.6667 9.99984 16.6667ZM10.0832 6.41666C10.4304 6.41666 10.7326 6.52777 10.9898 6.74999C11.2471 6.97221 11.3754 7.24999 11.3748 7.58332C11.3748 7.88888 11.2812 8.15971 11.094 8.39582C10.9068 8.63193 10.6948 8.85416 10.4582 9.06249C10.1387 9.34027 9.85762 9.64582 9.61484 9.97916C9.37206 10.3125 9.25039 10.6875 9.24984 11.1042C9.24984 11.2986 9.32289 11.4619 9.469 11.5942C9.61512 11.7264 9.78512 11.7922 9.979 11.7917C10.1873 11.7917 10.3646 11.7222 10.5107 11.5833C10.6568 11.4444 10.7504 11.2708 10.7915 11.0625C10.8471 10.7708 10.9721 10.5105 11.1665 10.2817C11.3609 10.0528 11.5693 9.83388 11.7915 9.62499C12.1109 9.31943 12.3854 8.9861 12.6148 8.62499C12.8443 8.26388 12.9587 7.8611 12.9582 7.41666C12.9582 6.70832 12.6701 6.1286 12.094 5.67749C11.5179 5.22638 10.8476 5.00055 10.0832 4.99999C9.55539 4.99999 9.05206 5.1111 8.57317 5.33332C8.09428 5.55555 7.72956 5.89582 7.47901 6.35416C7.38178 6.52082 7.35067 6.69805 7.38567 6.88582C7.42067 7.0736 7.51428 7.21582 7.6665 7.31249C7.86095 7.4236 8.06234 7.45832 8.27067 7.41666C8.47901 7.37499 8.65262 7.25693 8.7915 7.06249C8.94428 6.85416 9.13539 6.69443 9.36484 6.58332C9.59428 6.47221 9.83373 6.41666 10.0832 6.41666Z" fill="#CFA0FD"/>
</svg>
