<svg width="20" height="20" viewBox="0 0 20 20" fill="none" xmlns="http://www.w3.org/2000/svg">
<path d="M3.33317 9.99999H11.2498M4.99984 12.5L2.49984 9.99999L4.99984 7.49999M9.1665 5.83333V4.99999C9.1665 4.55797 9.3421 4.13404 9.65466 3.82148C9.96722 3.50892 10.3911 3.33333 10.8332 3.33333H14.9998C15.4419 3.33333 15.8658 3.50892 16.1783 3.82148C16.4909 4.13404 16.6665 4.55797 16.6665 4.99999V15C16.6665 15.442 16.4909 15.8659 16.1783 16.1785C15.8658 16.4911 15.4419 16.6667 14.9998 16.6667H10.8332C10.3911 16.6667 9.96722 16.4911 9.65466 16.1785C9.3421 15.8659 9.1665 15.442 9.1665 15V14.1667" stroke="#CFA0FD" stroke-width="2" stroke-linecap="round" stroke-linejoin="round"/>
</svg>
