<svg width="20" height="20" viewBox="0 0 20 20" fill="none" xmlns="http://www.w3.org/2000/svg">
<path fill-rule="evenodd" clip-rule="evenodd" d="M10 8.33332C10.3283 8.33332 10.6534 8.26866 10.9567 8.14302C11.26 8.01739 11.5356 7.83324 11.7678 7.60109C11.9999 7.36894 12.1841 7.09335 12.3097 6.79003C12.4353 6.48672 12.5 6.16163 12.5 5.83332C12.5 5.50502 12.4353 5.17993 12.3097 4.87661C12.1841 4.5733 11.9999 4.2977 11.7678 4.06556C11.5356 3.83341 11.26 3.64926 10.9567 3.52362C10.6534 3.39799 10.3283 3.33332 10 3.33332C9.33696 3.33332 8.70107 3.59672 8.23223 4.06556C7.76339 4.5344 7.5 5.17028 7.5 5.83332C7.5 6.49636 7.76339 7.13225 8.23223 7.60109C8.70107 8.06993 9.33696 8.33332 10 8.33332ZM10 9.99999C11.1051 9.99999 12.1649 9.561 12.9463 8.7796C13.7277 7.9982 14.1667 6.93839 14.1667 5.83332C14.1667 4.72825 13.7277 3.66845 12.9463 2.88704C12.1649 2.10564 11.1051 1.66666 10 1.66666C8.89493 1.66666 7.83512 2.10564 7.05372 2.88704C6.27232 3.66845 5.83333 4.72825 5.83333 5.83332C5.83333 6.93839 6.27232 7.9982 7.05372 8.7796C7.83512 9.561 8.89493 9.99999 10 9.99999ZM3.86583 12.8733C4.82 11.6083 6.2575 10.8333 8.095 10.8333H11.905C13.7425 10.8333 15.18 11.6083 16.1342 12.8733C17.0683 14.1125 17.5 15.7633 17.5 17.5C17.5 17.721 17.4122 17.933 17.2559 18.0892C17.0996 18.2455 16.8877 18.3333 16.6667 18.3333C16.4457 18.3333 16.2337 18.2455 16.0774 18.0892C15.9211 17.933 15.8333 17.721 15.8333 17.5C15.8333 16.015 15.4617 14.75 14.8042 13.8767C14.1667 13.0317 13.2225 12.5 11.9042 12.5H8.09583C6.7775 12.5 5.83333 13.0317 5.19583 13.8767C4.5375 14.75 4.16667 16.015 4.16667 17.5C4.16667 17.721 4.07887 17.933 3.92259 18.0892C3.76631 18.2455 3.55435 18.3333 3.33333 18.3333C3.11232 18.3333 2.90036 18.2455 2.74408 18.0892C2.5878 17.933 2.5 17.721 2.5 17.5C2.5 15.7633 2.93167 14.1125 3.86583 12.8733Z" fill="#CFA0FD"/>
<path fill-rule="evenodd" clip-rule="evenodd" d="M2.5 17.5C2.5 17.279 2.5878 17.067 2.74408 16.9107C2.90036 16.7545 3.11232 16.6667 3.33333 16.6667H16.635C16.856 16.6667 17.068 16.7545 17.2243 16.9107C17.3805 17.067 17.4683 17.279 17.4683 17.5C17.4683 17.721 17.3805 17.933 17.2243 18.0892C17.068 18.2455 16.856 18.3333 16.635 18.3333H3.33333C3.11232 18.3333 2.90036 18.2455 2.74408 18.0892C2.5878 17.933 2.5 17.721 2.5 17.5Z" fill="#CFA0FD"/>
</svg>
